<svg xmlns="http://www.w3.org/2000/svg" xmlns:xlink="http://www.w3.org/1999/xlink" aria-hidden="true" role="img" class="iconify iconify--logos" width="31.88" height="32" preserveAspectRatio="xMidYMid meet" viewBox="0 0 256 257"><defs><linearGradient id="IconifyId1813088fe14bc01480" x1="20.825%" x2="87.657%" y1="18.918%" y2="82.479%"><stop offset="0%" stop-color="#41D1FF"></stop><stop offset="100%" stop-color="#BD34FE"></stop></linearGradient><linearGradient id="IconifyId1813088fe14bc01481" x1="17.154%" x2="71.054%" y1="21.654%" y2="76.104%"><stop offset="0%" stop-color="#FFEA79"></stop><stop offset="40.337%" stop-color="#FFDD35"></stop><stop offset="100%" stop-color="#FFA800"></stop></linearGradient></defs><path fill="url(#IconifyId1813088fe14bc01480)" d="M255.153 37.937L134.897 252.976c-4.26 7.596-15.185 7.596-19.446 0L15.168 53.916c-4.945-8.816 2.05-19.558 12.037-18.585l209.434 20.407c9.913.966 14.996 12.44 8.514 22.2z"></path><path fill="url(#IconifyId1813088fe14bc01481)" d="M128.529 15.286l-20.912 43.518a6.383 6.383 0 0 0 4.14 8.686l33.64 10.742a6.383 6.383 0 0 1 4.14 8.686l-50.564 105.18c-3.74 7.777 5.547 15.464 11.936 9.8l105.862-93.906a6.38 6.38 0 0 0-1.56-10.372l-33.878-15.34a6.382 6.382 0 0 1-3.7-6.26l4.262-45.748c.84-9.02-9.742-14.774-17.366-8.992z"></path></svg>
